<?xml version="1.0" encoding="UTF-8"?>
<svg width="100pt" height="100pt" version="1.1" viewBox="0 0 100 100" xmlns="http://www.w3.org/2000/svg">
 <path stroke="#f7f5f0" stroke-width="2px" fill="#227BA8" d="m85.883 45.547v-6.4688h-65.281v6.4688h-20.586s-0.58594 11.176 5.293 16.469c6.4531 5.8086 15.293 8.2344 15.293 8.2344v4.1172h11.516c0.75 0.74219 1.3125 1.8438 1.3125 3.5039 0 2.9141-1.9688 4.0195-3.4609 4.4375h-9.3672v15.293h65.281v-15.297h-10.879s-1.4727-15.586 10.879-24.406c5.0898-3.6367 14.117-5.293 14.117-5.293v-7.0586zm-44.523-10.402l15.945-3.2422-0.71484-10.52 30.961-4.8164-2.7188-12.785-30.078 8.4805-3.3125-9.4805-15.938 3.2461 1.582 14.844zm-20.938-16.977l12.613 16.512h3.8984l-7.2227-14.047 3.125 0.089844-6.2188-15.855-10.32 0.45703 7.1094 12.613zm-7.7969-3.668l-6.418 0.22656 22.246 19.262zm3.6719-3.5l-5.1602-8.5977h-6.3633l7.0508 8.6016zm5.5039 23.68l-8.9453-5.4453-2.3242 5.4453z"/>
</svg>
