<svg width="350" height="480" xmlns="http://www.w3.org/2000/svg">
 <!-- Created with Method Draw - http://github.com/duopixel/Method-Draw/ -->
 <g>
  <title>Layer 1</title>
  <g stroke="null" id="svg_7">
   <g stroke="null" transform="matrix(3.5411387073904947,0,0,3.510909570757284,2.8302097637436594,-45.49088104703716) " id="svg_4">
    <path fill="#fff" stroke="null" id="svg_5" d="m27.783163,91.154831c-1.3867,0 -2.4492,0.11719 -3.5312,0.10547c-1.0664,-0.011718 -2.2109,-0.14062 -3.3281,-0.32031c-1.2266,-0.25781 -1.4727,-0.26562 -2.6992,-0.51953c-0.41797,-0.085938 -1.6719,-0.39844 -2.0781,-0.53906c-1.1055,-0.39062 -2.2344,-0.73828 -3.3086,-1.2031c-1.3906,-0.60156 -2.5625,-1.5352 -3.5664,-2.6836c-0.92969,-1.0586 -1.6133,-2.2695 -2.207,-3.5352c-0.82031,-1.7539 -1.4023,-3.5938 -1.9336,-5.4453c-0.39844,-1.3906 -0.69531,-2.8125 -1.0859,-4.207c-0.1875,-0.67188 -0.41016,-1.3477 -0.74609,-1.9531c-0.44922,-0.82031 -1.0977,-1.4883 -2.0117,-1.832c-0.48437,-0.17969 -0.97266,-0.35156 -1.4727,-0.49219c-0.64453,-0.18359 -0.95703,-0.56641 -0.95703,-1.2383c0,-0.82812 0.003906,-1.6602 0.003906,-2.4883c0,-0.33984 0.058594,-0.66016 0.32812,-0.89062c0.12891,-0.10938 0.28125,-0.24219 0.4375,-0.26562c0.52344,-0.078125 1.0586,-0.097656 1.5859,-0.16406c1.3672,-0.17188 2.7188,-0.36719 4.0117,-0.92969c1.4492,-0.63281 2.9414,-1.1836 4.4375,-1.6992c1.1797,-0.41016 2.3906,-0.73047 3.5938,-1.0742c1.7422,-0.49609 3.5352,-0.69531 5.3281,-0.80859c1.5508,-0.097656 3.1055,-0.082031 4.6602,-0.10547c2.3984,-0.035156 4.7734,0.26562 7.1406,0.60938c1.3398,0.19531 2.6602,0.50781 3.9883,0.78906c0.42578,0.089843 0.83984,0.23438 1.2578,0.37109c0.019532,0.003907 2.5156,0.95703 3.3438,1.4805c1.0039,0.63281 2.5898,1.4414 2.6602,1.5c0.4375,0.35156 0.9375,0.21875 1.4062,0.19922c1.1367,-0.054688 2.2695,-0.17188 3.4023,-0.25c1.3828,-0.097656 4.9922,0.10547 5.3008,0.14453c0.25781,0.035157 0.41797,0.097657 0.39062,0.40234c-0.0625,0.72656 -0.12109,1.457 -0.16797,2.1875c-0.019531,0.28516 -0.019531,0.57422 -0.023438,0.85938c-0.003906,0.26562 -0.11328,0.36719 -0.39844,0.375c-1.2422,0.03125 -2.4883,0.03125 -3.7227,0.14844c-1.0039,0.097656 -1.9609,0.42578 -2.6211,1.2695c-0.53125,0.67969 -0.46875,1.9258 0.10547,2.5664c0.33203,0.36719 0.34375,0.90234 0.15625,1.3672c-0.23828,0.58984 -0.375,1.2188 -0.59375,1.8203c-0.39844,1.0977 -0.80078,2.1953 -1.2383,3.2812c-0.39453,0.97266 -0.8125,1.9375 -1.2617,2.8867c-0.28906,0.60938 -0.62109,1.2031 -0.98438,1.7695c-0.63672,1 -1.2578,2.0156 -1.9844,2.9453c-0.60547,0.77344 -1.3125,1.4805 -2.0469,2.1328c-1.1211,1 -2.4336,1.7148 -3.8359,2.2461c-0.62891,0.23828 -1.2969,0.38672 -1.9531,0.55078c-0.57812,0.14844 -1.1602,0.27734 -1.7422,0.39453c-0.76562,0.14062 -1.1641,0.17188 -2.0391,0.24219l-0.000068,0.00003zm14.258,-19.543c0.089843,-1.3672 -0.25391,-2.8633 -0.94531,-4.0391c-0.42969,-0.73047 -0.95703,-1.4023 -1.6406,-1.9062c-0.71484,-0.52734 -1.4688,-1.0039 -2.2148,-1.4844c-0.25781,-0.16797 -0.54688,-0.29297 -0.82813,-0.42188c-0.17578,-0.082031 -0.36719,-0.12891 -0.54687,-0.20312c-0.09375,-0.039063 -0.77734,-0.26953 -1.0312,-0.33594c-1.0508,-0.28516 -2.0938,-0.61719 -3.1562,-0.85547c-1.0195,-0.22656 -2.0508,-0.39453 -3.0859,-0.52734c-1.3008,-0.16797 -2.6094,-0.32422 -3.9219,-0.39063c-1.2734,-0.066406 -2.5508,-0.042968 -3.8242,-0.011718c-0.87109,0.019531 -1.7461,0.078125 -2.6094,0.1875c-1.2383,0.16016 -2.4688,0.38672 -3.7031,0.58203c-1.2383,0.19922 -2.4492,0.50391 -3.6133,0.96875c-1.0469,0.41797 -2.0391,0.90234 -2.832,1.7578c-0.83984,0.90234 -1.1953,1.9844 -1.2422,3.1523c-0.082031,2.0195 -0.027344,4.0391 0.34766,6.043c0.1875,0.99609 0.28516,2.0195 0.51953,3.0078c0.27734,1.1562 0.59766,2.3164 1.0195,3.4297c0.39453,1.0312 0.91797,2.0273 1.4492,3.0039c0.58984,1.0742 1.4844,1.8984 2.5234,2.5312c0.79297,0.48047 1.6367,0.90234 2.5078,1.2227c0.89453,0.32813 1.8398,0.51563 2.7695,0.73047c0.55469,0.12891 1.1289,0.1875 1.6914,0.28516c0.58984,0.10547 1.168,0.26953 1.7617,0.32812c0.94922,0.09375 1.9023,0.14453 2.8555,0.17969c0.75391,0.027344 1.5117,0.027344 2.2656,-0.003906c0.69531,-0.027344 1.3945,-0.085938 2.0898,-0.17578c0.78906,-0.10156 1.5703,-0.23437 2.3555,-0.37891c0.45312,-0.082031 0.89453,-0.20312 1.3438,-0.31641c0.24219,-0.0625 0.48828,-0.125 0.71094,-0.23047c0.21094,-0.10156 0.375,-0.31641 0.59375,-0.38281c0.92969,-0.28125 1.668,-0.85156 2.3594,-1.4961c0.95312,-0.89062 1.8203,-1.8594 2.4609,-3.0039c0.60938,-1.0898 1.2422,-2.1641 1.7734,-3.293c0.41016,-0.875 0.69141,-1.8125 0.99609,-2.7344c0.19922,-0.59766 0.39453,-1.2031 0.48828,-1.8203c0.074219,-0.49609 0.15234,-1.2109 0.21094,-1.8555c0.070313,-0.82422 0.11328,-1.5391 0.10156,-1.543l-0.00004,0.000164zm-41.738,-5.5781c0,0.48047 0.070312,0.58203 0.55078,0.65234c0.35938,0.054687 0.72656,0.070312 1.0898,0.10156c0.14063,0.011719 0.28516,0.019532 0.42578,0.035156c0.625,0.0625 1.2461,0.14844 1.8711,0.17969c0.41797,0.023438 0.78906,-0.53516 0.57812,-0.89062c-0.14453,-0.24219 -0.43359,-0.46875 -0.69922,-0.54297c-0.40234,-0.11328 -0.84375,-0.097656 -1.2656,-0.11719c-0.62109,-0.027344 -1.2422,-0.03125 -1.8633,-0.066407c-0.47656,-0.023437 -0.6875,0.16016 -0.6875,0.64844l0.00004,0.000001z"/>
    <path fill="#fff" stroke="null" id="svg_6" d="m67.131163,90.900831c-0.58594,-0.11328 -1.168,-0.24219 -1.7422,-0.39453c-0.65625,-0.16406 -1.3242,-0.3125 -1.9531,-0.55469c-1.3984,-0.52734 -2.7148,-1.2422 -3.8359,-2.2422c-0.73437,-0.65234 -1.4414,-1.3594 -2.0469,-2.1328c-0.72656,-0.93359 -1.3477,-1.9453 -1.9805,-2.9453c-0.36328,-0.56641 -0.69531,-1.1602 -0.98047,-1.7695c-0.44922,-0.94922 -0.87109,-1.9141 -1.2656,-2.8867c-0.4375,-1.0859 -0.84375,-2.1836 -1.2383,-3.2812c-0.21875,-0.60156 -0.35156,-1.2305 -0.59375,-1.8164c-0.19141,-0.46484 -0.17969,-1 0.15234,-1.3672c0.57422,-0.64062 0.64062,-1.8867 0.10547,-2.5664c-0.66406,-0.84375 -1.5039,-1.1641 -2.6211,-1.2695c-1.2344,-0.11328 -2.4805,-0.12109 -3.7227,-0.14844c-0.28516,-0.007813 -0.39453,-0.10938 -0.39453,-0.375c-0.003906,-0.28516 -0.003906,-0.57422 -0.023437,-0.86328c-0.050782,-0.73047 -0.10547,-1.457 -0.17188,-2.1875c-0.027343,-0.30469 0.13281,-0.36719 0.39453,-0.40234c0.30859,-0.039062 0.53516,-0.089843 0.97656,-0.12109c0.078125,-0.007813 0.1875,-0.015625 0.26172,-0.023438c1.3906,-0.16406 2.6797,-0.097656 4.0586,0c1.1367,0.078125 2.2695,0.19922 3.4062,0.25c0.46875,0.023438 0.96484,0.15234 1.4062,-0.19531c0.070312,-0.054688 1.6562,-0.86719 2.6602,-1.5c0.82812,-0.52344 3.3242,-1.4766 3.3438,-1.4805c0.41406,-0.13672 0.83203,-0.28125 1.2578,-0.37109c1.3242,-0.28125 2.6484,-0.59375 3.9883,-0.78906c2.3633,-0.34375 4.7383,-0.64062 7.1406,-0.60547c1.5547,0.023437 3.1094,0.007813 4.6602,0.10156c1.7969,0.10937 3.5898,0.3125 5.3281,0.80859c1.2031,0.34375 2.4141,0.66406 3.5938,1.0742c1.4961,0.51953 2.9844,1.0703 4.4375,1.7031c1.2891,0.5625 2.6406,0.75781 4.0117,0.92969c0.52734,0.066407 1.0625,0.085938 1.5859,0.16406c0.15625,0.023437 0.30859,0.15234 0.4375,0.26562c0.26953,0.23047 0.32812,0.55078 0.32812,0.89062c0,0.82812 0.003906,1.6602 0.003906,2.4883c0,0.67188 -0.3125,1.0586 -0.95703,1.2383c-0.49609,0.14062 -0.98828,0.30859 -1.4727,0.49219c-0.91016,0.33984 -1.5625,1.0117 -2.0117,1.832c-0.33203,0.60547 -0.55859,1.2852 -0.74219,1.9531c-0.39062,1.3945 -0.68359,2.8164 -1.0859,4.207c-0.53125,1.8555 -1.1133,3.6953 -1.9336,5.4453c-0.59375,1.2656 -1.2773,2.4766 -2.207,3.5352c-1.0039,1.1445 -2.1758,2.0781 -3.5664,2.6836c-1.0742,0.46484 -2.1992,0.8125 -3.3086,1.2031c-0.40625,0.14453 -1.6602,0.45312 -2.0781,0.53906c-1.2305,0.25391 -1.4727,0.26563 -2.6992,0.51953c-1.1133,0.18359 -2.2617,0.3125 -3.3242,0.32031c-1.082,0.015625 -2.1445,-0.10547 -3.5312,-0.10547c-0.88281,-0.066407 -1.2812,-0.097657 -2.0508,-0.25l-0.000059,-0.000022zm-12.109,-17.746c0.058593,0.64844 0.13281,1.3633 0.21094,1.8555c0.09375,0.61719 0.29297,1.2227 0.48828,1.8203c0.30469,0.92188 0.58594,1.8594 0.99609,2.7344c0.52734,1.1289 1.1641,2.2031 1.7695,3.293c0.64062,1.1445 1.5078,2.1133 2.4609,3.0078c0.69141,0.64453 1.4297,1.2148 2.3594,1.4961c0.21484,0.0625 0.37891,0.28125 0.58984,0.38281c0.22656,0.10547 0.46875,0.16406 0.71094,0.23047c0.44531,0.11328 0.89062,0.23438 1.3438,0.31641c0.78125,0.14453 1.5664,0.27734 2.3555,0.37891c0.69141,0.089843 1.3906,0.14453 2.0898,0.17578c0.75391,0.027344 1.5117,0.027344 2.2617,0.003906c0.95312,-0.035156 1.9062,-0.085937 2.8555,-0.17969c0.59375,-0.058594 1.1719,-0.22266 1.7578,-0.32812c0.5625,-0.10156 1.1367,-0.15625 1.6914,-0.28516c0.92969,-0.21875 1.8789,-0.40234 2.7695,-0.73047c0.86719,-0.32031 1.7148,-0.74219 2.5078,-1.2227c1.0352,-0.63281 1.9336,-1.4531 2.5195,-2.5312c0.53516,-0.97656 1.0547,-1.9688 1.4492,-3.0039c0.42578,-1.1094 0.74219,-2.2695 1.0195,-3.4297c0.23438,-0.98828 0.33594,-2.0078 0.52344,-3.0078c0.375,-2.0039 0.43359,-4.0234 0.35547,-6.0469c-0.046875,-1.168 -0.40234,-2.25 -1.2383,-3.1523c-0.79297,-0.85156 -1.7852,-1.3398 -2.8359,-1.7578c-1.168,-0.46484 -2.375,-0.76953 -3.6133,-0.96875c-1.2344,-0.19531 -2.4648,-0.42188 -3.7031,-0.58203c-0.86328,-0.10938 -1.7383,-0.16797 -2.6055,-0.1875c-1.2734,-0.027344 -2.5547,-0.054688 -3.8242,0.011718c-1.3125,0.070313 -2.6172,0.22656 -3.9219,0.39453c-1.0352,0.13281 -2.0664,0.30078 -3.0859,0.52734c-1.0625,0.23828 -2.1055,0.56641 -3.1562,0.85547c-0.25391,0.0625 -0.9375,0.29297 -1.0312,0.33203c-0.17969,0.074218 -0.37109,0.125 -0.54688,0.20312c-0.28125,0.12891 -0.56641,0.25391 -0.82812,0.42188c-0.74609,0.48047 -1.5,0.95703 -2.2148,1.4844c-0.6875,0.50391 -1.2109,1.1719 -1.6406,1.9062c-0.69141,1.1758 -1.0352,2.6758 -0.94531,4.0391c-0.015625,0.003906 0.03125,0.71875 0.10547,1.543l-0.00006,-0.000154zm40.941,-7.7695c-0.62109,0.035157 -1.2422,0.035157 -1.8594,0.066407c-0.42578,0.019531 -0.86328,0.003906 -1.2656,0.11719c-0.26953,0.074219 -0.55859,0.30078 -0.69922,0.54297c-0.21484,0.35547 0.16016,0.91016 0.57812,0.89062c0.625,-0.03125 1.2461,-0.11719 1.8711,-0.17969c0.14453,-0.015624 0.28516,-0.023437 0.42969,-0.035156c0.36328,-0.03125 0.73047,-0.050781 1.0898,-0.10156c0.48438,-0.074219 0.55469,-0.17188 0.55469,-0.65625c-0.007812,-0.48438 -0.21875,-0.66797 -0.69922,-0.64453l0.00004,-0.000001z"/>
   </g>
  </g>
  <g stroke="null" id="svg_12">
   <path fill="#fff" stroke="null" id="svg_11" d="m328.362242,289.391555c-27.538097,84.455719 -84.180645,61.553805 -111.91601,50.884846c-16.578345,-12.172831 -29.687215,-15.887515 -41.937067,-15.887515s-25.343003,3.730088 -41.952785,15.887515c-27.737723,10.668174 -84.365338,33.570873 -111.91601,-50.884846c0,0 -18.773046,-75.845889 -20.538631,-68.906153c0.660061,5.295969 1.335447,10.668174 1.995508,16.08714c0,0 3.868254,46.786236 6.815559,67.373595c0.859608,8.335149 1.396867,15.611262 2.102984,21.382717c3.88358,32.020239 12.587014,42.153197 20.32368,54.048202c24.974796,30.884575 56.948273,65.789952 69.012253,79.681212c16.440022,18.880718 52.283796,19.985732 61.046882,19.571548c8.887656,-0.383752 13.10887,-0.614005 13.10887,-0.614005s4.221214,0.230253 13.078219,0.644696c8.780377,0.399094 44.636726,-0.706116 61.046882,-19.571548c12.065159,-13.892046 44.05514,-48.79821 69.027972,-79.681212c7.751991,-11.91151 16.440022,-22.02757 20.32368,-54.048202c0.690751,-5.771848 1.258701,-13.047568 2.102984,-21.382717c2.931862,-20.584608 6.815559,-67.373595 6.815559,-67.373595c0.660061,-5.4339 1.335447,-10.791171 1.995508,-16.08714c-1.780596,-6.953489 -20.538631,68.874716 -20.538631,68.874716l0.002594,0.000747zm-114.265932,109.601455c-4.697093,1.703851 -12.940289,2.824425 -22.457079,3.423066c-3.545867,-0.47584 -6.707887,-1.473613 -8.642054,-3.34632c-7.291438,-7.045836 -8.488798,-5.894453 -8.488798,-5.894453s-1.197321,-1.151265 -8.488798,5.909778c-1.949453,1.872707 -5.081018,2.870481 -8.642054,3.34632c-9.517183,-0.614005 -17.759986,-1.73458 -22.472798,-3.423066c-20.64591,-8.104873 -11.834882,-27.707072 -11.681626,-28.059953c12.694686,-19.63285 51.285669,-21.213743 51.285669,-21.213743s38.590196,1.581049 51.26995,21.183091c0.168852,0.368403 8.948958,19.970406 -11.681626,28.075279l-0.000786,0z"/>
  </g>
 </g>
</svg>
